<svg width="28" height="28" viewBox="0 0 28 28" fill="none" xmlns="http://www.w3.org/2000/svg">
<path d="M14.3203 2L14.0195 2.19141L2 9.83203V19.0195L14.3203 26.8516L26.6406 19.0195V9.83203L14.3203 2ZM14.3203 3.33203L25.5195 10.4453V18.4062L14.3203 25.5195L3.12109 18.4062V10.4453L14.3203 3.33203ZM13.7617 4.97656L4.66797 10.7578L9.04687 13.793L13.7617 10.582V4.97656ZM14.8789 4.97656V10.582L15.125 10.75L19.5938 13.793L23.9727 10.7578L14.8789 4.97656ZM12.6406 7.01562V9.98828L9.05469 12.4336L6.69141 10.7969L12.6406 7.01562ZM16 7.01562L21.9492 10.7969L19.5859 12.4336L16 9.98828V7.01562ZM14.3203 11.5195L10.0078 14.4609L14.3203 17.4492L14.6406 17.2266L18.6328 14.4609L14.3203 11.5195ZM4.24219 11.7891V17.0703L8.08203 14.4531L7.41016 13.9883L4.24219 11.7891ZM24.3984 11.793L20.5586 14.4531L21.2344 14.9141L24.3984 17.0703V11.793ZM14.3203 12.8789L16.6562 14.4688L14.3203 16.0859L11.9844 14.4688L14.3203 12.8789ZM5.35937 13.9297L6.10547 14.4453L5.35937 14.9492V13.9297ZM23.2812 13.9297V14.9492L22.5352 14.4453L23.2812 13.9297ZM9.04297 15.1211L8.72266 15.3359L4.67187 18.0977L13.7617 23.875V18.3906L9.04297 15.1211ZM19.5977 15.1211L14.8789 18.3906V23.875L23.9688 18.0977L19.5977 15.1211ZM9.03516 16.4805L12.6406 18.9766V21.8359L6.70703 18.0664L9.03516 16.4805ZM19.6055 16.4805L21.9336 18.0664L16 21.8359V18.9766L19.6055 16.4805Z" fill="#8B949E"/>
</svg>
