<?xml version="1.0" encoding="UTF-8"?>
<svg xmlns="http://www.w3.org/2000/svg" viewBox="0 0 28 28" width="28px" height="28px">
<g id="surface23707495">
<path style=" stroke:none;fill-rule:nonzero;fill:rgb(43.137255%,46.27451%,50.588238%);fill-opacity:1;" d="M 14 1.574219 L 13.699219 1.765625 L 1.679688 9.40625 L 1.679688 18.59375 L 14 26.425781 L 26.320312 18.59375 L 26.320312 9.40625 Z M 14 2.90625 L 25.199219 10.019531 L 25.199219 17.980469 L 14 25.09375 L 2.800781 17.980469 L 2.800781 10.019531 Z M 13.441406 4.550781 L 4.347656 10.332031 L 8.726562 13.367188 L 13.441406 10.15625 Z M 14.558594 4.550781 L 14.558594 10.15625 L 14.804688 10.324219 L 19.273438 13.367188 L 23.652344 10.332031 Z M 12.320312 6.589844 L 12.320312 9.5625 L 8.734375 12.007812 L 6.371094 10.371094 Z M 15.679688 6.589844 L 21.628906 10.371094 L 19.265625 12.007812 L 15.679688 9.5625 Z M 14 11.09375 L 9.6875 14.035156 L 14 17.023438 L 14.320312 16.800781 L 18.3125 14.035156 Z M 3.921875 11.363281 L 3.921875 16.644531 L 7.761719 14.027344 L 7.089844 13.5625 Z M 24.078125 11.367188 L 20.238281 14.027344 L 20.914062 14.488281 L 24.078125 16.644531 Z M 14 12.453125 L 16.335938 14.042969 L 14 15.660156 L 11.664062 14.042969 Z M 5.039062 13.503906 L 5.785156 14.019531 L 5.039062 14.523438 Z M 22.960938 13.503906 L 22.960938 14.523438 L 22.214844 14.019531 Z M 8.722656 14.695312 L 8.402344 14.910156 L 4.351562 17.671875 L 13.441406 23.449219 L 13.441406 17.964844 Z M 19.277344 14.695312 L 14.558594 17.964844 L 14.558594 23.449219 L 23.648438 17.671875 Z M 8.714844 16.054688 L 12.320312 18.550781 L 12.320312 21.410156 L 6.386719 17.640625 Z M 19.285156 16.054688 L 21.613281 17.640625 L 15.679688 21.410156 L 15.679688 18.550781 Z M 19.285156 16.054688 "/>
</g>
</svg>
