<?xml version="1.0" encoding="UTF-8"?>
<svg xmlns="http://www.w3.org/2000/svg" viewBox="0 0 28 28" width="28px" height="28px">
<g id="surface23710617">
<path style=" stroke:none;fill-rule:nonzero;fill:rgb(43.137255%,46.27451%,50.588238%);fill-opacity:1;" d="M 3.078125 3.921875 C 1.699219 3.921875 0.566406 5.046875 0.558594 6.429688 C 0.558594 6.429688 0.558594 6.433594 0.558594 6.4375 C 0.558594 6.4375 0.558594 6.4375 0.558594 6.441406 L 0.558594 21.558594 C 0.558594 22.945312 1.695312 24.078125 3.078125 24.078125 L 24.921875 24.078125 C 26.304688 24.078125 27.441406 22.945312 27.441406 21.558594 L 27.441406 6.441406 C 27.441406 6.4375 27.441406 6.4375 27.441406 6.4375 C 27.441406 6.433594 27.441406 6.429688 27.441406 6.429688 C 27.433594 5.046875 26.300781 3.921875 24.921875 3.921875 Z M 4.535156 5.039062 L 23.464844 5.039062 L 14 11.636719 Z M 2.671875 5.105469 L 14 13.003906 L 25.328125 5.105469 C 25.902344 5.277344 26.316406 5.800781 26.320312 6.433594 C 26.316406 6.550781 26.199219 6.789062 26.023438 6.976562 C 25.84375 7.171875 25.671875 7.289062 25.671875 7.289062 L 25.671875 7.296875 L 14 15.554688 L 2.328125 7.296875 L 2.328125 7.289062 C 2.328125 7.289062 2.15625 7.171875 1.976562 6.976562 C 1.800781 6.789062 1.683594 6.550781 1.679688 6.433594 C 1.683594 5.800781 2.097656 5.277344 2.671875 5.105469 Z M 1.679688 8.207031 L 1.683594 8.210938 L 1.6875 8.210938 L 1.6875 8.214844 L 3.359375 9.394531 L 3.359375 22.960938 L 3.078125 22.960938 C 2.300781 22.960938 1.679688 22.339844 1.679688 21.558594 Z M 26.320312 8.207031 L 26.320312 21.558594 C 26.320312 22.339844 25.699219 22.960938 24.921875 22.960938 L 24.640625 22.960938 L 24.640625 9.394531 L 26.3125 8.214844 L 26.3125 8.210938 Z M 4.480469 10.1875 L 14 16.925781 L 23.519531 10.1875 L 23.519531 22.960938 L 4.480469 22.960938 Z M 4.480469 10.1875 "/>
</g>
</svg>
