<svg width="28" height="28" viewBox="0 0 28 28" fill="none" xmlns="http://www.w3.org/2000/svg">
<path d="M3.07812 3.92188C1.69922 3.92188 0.566406 5.04688 0.558594 6.42969C0.558594 6.42969 0.558594 6.43359 0.558594 6.4375C0.558594 6.4375 0.558594 6.4375 0.558594 6.44141V21.5586C0.558594 22.9453 1.69531 24.0781 3.07812 24.0781H24.9219C26.3047 24.0781 27.4414 22.9453 27.4414 21.5586V6.44141C27.4414 6.4375 27.4414 6.4375 27.4414 6.4375C27.4414 6.43359 27.4414 6.42969 27.4414 6.42969C27.4336 5.04688 26.3008 3.92188 24.9219 3.92188H3.07812ZM4.53516 5.03906H23.4648L14 11.6367L4.53516 5.03906ZM2.67187 5.10547L14 13.0039L25.3281 5.10547C25.9023 5.27734 26.3164 5.80078 26.3203 6.43359C26.3164 6.55078 26.1992 6.78906 26.0234 6.97656C25.8437 7.17188 25.6719 7.28906 25.6719 7.28906V7.29688L14 15.5547L2.32812 7.29688V7.28906C2.32812 7.28906 2.15625 7.17188 1.97656 6.97656C1.80078 6.78906 1.68359 6.55078 1.67969 6.43359C1.68359 5.80078 2.09766 5.27734 2.67187 5.10547ZM1.67969 8.20703L1.68359 8.21094H1.6875V8.21484L3.35937 9.39453V22.9609H3.07812C2.30078 22.9609 1.67969 22.3398 1.67969 21.5586V8.20703ZM26.3203 8.20703V21.5586C26.3203 22.3398 25.6992 22.9609 24.9219 22.9609H24.6406V9.39453L26.3125 8.21484V8.21094L26.3203 8.20703ZM4.48047 10.1875L14 16.9258L23.5195 10.1875V22.9609H4.48047V10.1875Z" fill="#8B949E"/>
</svg>
