<?xml version="1.0" encoding="UTF-8"?>
<svg xmlns="http://www.w3.org/2000/svg" viewBox="0 0 28 28" width="28px" height="28px">
<g id="surface23706483">
<path style=" stroke:none;fill-rule:nonzero;fill:rgb(43.137255%,46.27451%,50.588238%);fill-opacity:1;" d="M 8.960938 1.679688 C 4.945312 1.679688 1.679688 4.945312 1.679688 8.960938 L 1.679688 19.039062 C 1.679688 23.054688 4.945312 26.320312 8.960938 26.320312 L 19.039062 26.320312 C 23.054688 26.320312 26.320312 23.054688 26.320312 19.039062 L 26.320312 8.960938 C 26.320312 4.945312 23.054688 1.679688 19.039062 1.679688 Z M 8.960938 2.800781 L 19.039062 2.800781 C 22.449219 2.800781 25.199219 5.550781 25.199219 8.960938 L 25.199219 19.039062 C 25.199219 22.449219 22.449219 25.199219 19.039062 25.199219 L 8.960938 25.199219 C 5.550781 25.199219 2.800781 22.449219 2.800781 19.039062 L 2.800781 8.960938 C 2.800781 5.550781 5.550781 2.800781 8.960938 2.800781 Z M 20.71875 6.160156 C 20.101562 6.160156 19.601562 6.660156 19.601562 7.28125 C 19.601562 7.898438 20.101562 8.398438 20.71875 8.398438 C 21.339844 8.398438 21.839844 7.898438 21.839844 7.28125 C 21.839844 6.660156 21.339844 6.160156 20.71875 6.160156 Z M 14 7.839844 C 10.605469 7.839844 7.839844 10.605469 7.839844 14 C 7.839844 17.394531 10.605469 20.160156 14 20.160156 C 17.394531 20.160156 20.160156 17.394531 20.160156 14 C 20.160156 10.605469 17.394531 7.839844 14 7.839844 Z M 14 8.960938 C 16.789062 8.960938 19.039062 11.210938 19.039062 14 C 19.039062 16.789062 16.789062 19.039062 14 19.039062 C 11.210938 19.039062 8.960938 16.789062 8.960938 14 C 8.960938 11.210938 11.210938 8.960938 14 8.960938 Z M 14 8.960938 "/>
</g>
</svg>
