<svg width="28" height="28" viewBox="0 0 28 28" fill="none" xmlns="http://www.w3.org/2000/svg">
<path d="M8.96094 1.67969C4.94531 1.67969 1.67969 4.94531 1.67969 8.96094V19.0391C1.67969 23.0547 4.94531 26.3203 8.96094 26.3203H19.0391C23.0547 26.3203 26.3203 23.0547 26.3203 19.0391V8.96094C26.3203 4.94531 23.0547 1.67969 19.0391 1.67969H8.96094ZM8.96094 2.80078H19.0391C22.4492 2.80078 25.1992 5.55078 25.1992 8.96094V19.0391C25.1992 22.4492 22.4492 25.1992 19.0391 25.1992H8.96094C5.55078 25.1992 2.80078 22.4492 2.80078 19.0391V8.96094C2.80078 5.55078 5.55078 2.80078 8.96094 2.80078ZM20.7188 6.16016C20.1016 6.16016 19.6016 6.66016 19.6016 7.28125C19.6016 7.89844 20.1016 8.39844 20.7188 8.39844C21.3398 8.39844 21.8398 7.89844 21.8398 7.28125C21.8398 6.66016 21.3398 6.16016 20.7188 6.16016ZM14 7.83984C10.6055 7.83984 7.83984 10.6055 7.83984 14C7.83984 17.3945 10.6055 20.1602 14 20.1602C17.3945 20.1602 20.1602 17.3945 20.1602 14C20.1602 10.6055 17.3945 7.83984 14 7.83984ZM14 8.96094C16.7891 8.96094 19.0391 11.2109 19.0391 14C19.0391 16.7891 16.7891 19.0391 14 19.0391C11.2109 19.0391 8.96094 16.7891 8.96094 14C8.96094 11.2109 11.2109 8.96094 14 8.96094Z" fill="#8B949E"/>
</svg>
