<?xml version="1.0" encoding="UTF-8"?>
<svg xmlns="http://www.w3.org/2000/svg" viewBox="0 0 28 28" width="28px" height="28px">
<g id="surface23710012">
<path style=" stroke:none;fill-rule:nonzero;fill:rgb(43.137255%,46.27451%,50.588238%);fill-opacity:1;" d="M 5.039062 2.238281 C 3.5 2.238281 2.238281 3.5 2.238281 5.039062 L 2.238281 22.960938 C 2.238281 24.5 3.5 25.761719 5.039062 25.761719 L 22.960938 25.761719 C 24.5 25.761719 25.761719 24.5 25.761719 22.960938 L 25.761719 5.039062 C 25.761719 3.5 24.5 2.238281 22.960938 2.238281 Z M 5.039062 3.359375 L 22.960938 3.359375 C 23.894531 3.359375 24.640625 4.105469 24.640625 5.039062 L 24.640625 22.960938 C 24.640625 23.894531 23.894531 24.640625 22.960938 24.640625 L 5.039062 24.640625 C 4.105469 24.640625 3.359375 23.894531 3.359375 22.960938 L 3.359375 5.039062 C 3.359375 4.105469 4.105469 3.359375 5.039062 3.359375 Z M 7.839844 6.167969 C 7.226562 6.167969 6.675781 6.351562 6.265625 6.695312 C 5.859375 7.039062 5.605469 7.550781 5.605469 8.101562 C 5.605469 9.148438 6.511719 9.960938 7.667969 10.042969 C 7.722656 10.0625 7.78125 10.074219 7.839844 10.074219 C 9.113281 10.074219 10.074219 9.183594 10.074219 8.101562 C 10.074219 8.089844 10.074219 8.082031 10.074219 8.070312 C 10.015625 7.007812 9.066406 6.167969 7.839844 6.167969 Z M 7.839844 7.273438 C 8.621094 7.273438 8.925781 7.621094 8.960938 8.117188 C 8.953125 8.59375 8.65625 8.964844 7.839844 8.964844 C 7.0625 8.964844 6.714844 8.570312 6.714844 8.101562 C 6.714844 7.867188 6.796875 7.691406 6.976562 7.539062 C 7.15625 7.390625 7.445312 7.273438 7.839844 7.273438 Z M 6.160156 10.640625 C 5.851562 10.640625 5.601562 10.890625 5.601562 11.199219 L 5.601562 21.839844 C 5.601562 22.148438 5.851562 22.398438 6.160156 22.398438 L 9.519531 22.398438 C 9.828125 22.398438 10.078125 22.148438 10.078125 21.839844 L 10.078125 11.199219 C 10.078125 10.890625 9.828125 10.640625 9.519531 10.640625 Z M 11.199219 10.640625 C 10.890625 10.640625 10.640625 10.890625 10.640625 11.199219 L 10.640625 21.839844 C 10.640625 22.148438 10.890625 22.398438 11.199219 22.398438 L 14.558594 22.398438 C 14.871094 22.398438 15.121094 22.148438 15.121094 21.839844 L 15.121094 16.238281 C 15.121094 15.773438 15.246094 15.3125 15.46875 15.011719 C 15.691406 14.707031 15.976562 14.527344 16.511719 14.535156 C 17.0625 14.546875 17.355469 14.734375 17.574219 15.03125 C 17.796875 15.328125 17.921875 15.773438 17.921875 16.238281 L 17.921875 21.839844 C 17.921875 22.148438 18.171875 22.398438 18.480469 22.398438 L 21.839844 22.398438 C 22.148438 22.398438 22.398438 22.148438 22.398438 21.839844 L 22.398438 15.828125 C 22.398438 14.167969 21.910156 12.855469 21.066406 11.964844 C 20.226562 11.078125 19.054688 10.640625 17.816406 10.640625 C 16.636719 10.640625 15.742188 11.035156 15.121094 11.4375 L 15.121094 11.199219 C 15.121094 10.890625 14.871094 10.640625 14.558594 10.640625 Z M 6.71875 11.761719 L 8.960938 11.761719 L 8.960938 21.28125 L 6.71875 21.28125 Z M 11.761719 11.761719 L 14 11.761719 L 14 12.632812 C 14 12.875 14.152344 13.089844 14.382812 13.164062 C 14.609375 13.242188 14.863281 13.164062 15.007812 12.972656 C 15.007812 12.972656 15.886719 11.761719 17.816406 11.761719 C 18.796875 11.761719 19.640625 12.085938 20.253906 12.734375 C 20.871094 13.386719 21.28125 14.386719 21.28125 15.828125 L 21.28125 21.28125 L 19.039062 21.28125 L 19.039062 16.238281 C 19.039062 15.585938 18.882812 14.910156 18.472656 14.363281 C 18.066406 13.8125 17.378906 13.429688 16.53125 13.414062 C 15.675781 13.402344 14.980469 13.792969 14.570312 14.347656 C 14.160156 14.902344 14 15.585938 14 16.238281 L 14 21.28125 L 11.761719 21.28125 Z M 11.761719 11.761719 "/>
</g>
</svg>
