<svg width="28" height="28" viewBox="0 0 28 28" fill="none" xmlns="http://www.w3.org/2000/svg">
<path d="M5.03906 2.23828C3.5 2.23828 2.23828 3.5 2.23828 5.03906V22.9609C2.23828 24.5 3.5 25.7617 5.03906 25.7617H22.9609C24.5 25.7617 25.7617 24.5 25.7617 22.9609V5.03906C25.7617 3.5 24.5 2.23828 22.9609 2.23828H5.03906ZM5.03906 3.35938H22.9609C23.8945 3.35938 24.6406 4.10547 24.6406 5.03906V22.9609C24.6406 23.8945 23.8945 24.6406 22.9609 24.6406H5.03906C4.10547 24.6406 3.35938 23.8945 3.35938 22.9609V5.03906C3.35938 4.10547 4.10547 3.35938 5.03906 3.35938ZM7.83984 6.16797C7.22656 6.16797 6.67578 6.35156 6.26562 6.69531C5.85938 7.03906 5.60547 7.55078 5.60547 8.10156C5.60547 9.14844 6.51172 9.96094 7.66797 10.043C7.72266 10.0625 7.78125 10.0742 7.83984 10.0742C9.11328 10.0742 10.0742 9.18359 10.0742 8.10156C10.0742 8.08984 10.0742 8.08203 10.0742 8.07031C10.0156 7.00781 9.06641 6.16797 7.83984 6.16797ZM7.83984 7.27344C8.62109 7.27344 8.92578 7.62109 8.96094 8.11719C8.95313 8.59375 8.65625 8.96484 7.83984 8.96484C7.0625 8.96484 6.71484 8.57031 6.71484 8.10156C6.71484 7.86719 6.79688 7.69141 6.97656 7.53906C7.15625 7.39063 7.44531 7.27344 7.83984 7.27344ZM6.16016 10.6406C5.85156 10.6406 5.60156 10.8906 5.60156 11.1992V21.8398C5.60156 22.1484 5.85156 22.3984 6.16016 22.3984H9.51953C9.82813 22.3984 10.0781 22.1484 10.0781 21.8398V11.1992C10.0781 10.8906 9.82813 10.6406 9.51953 10.6406H6.16016ZM11.1992 10.6406C10.8906 10.6406 10.6406 10.8906 10.6406 11.1992V21.8398C10.6406 22.1484 10.8906 22.3984 11.1992 22.3984H14.5586C14.8711 22.3984 15.1211 22.1484 15.1211 21.8398V16.2383C15.1211 15.7734 15.2461 15.3125 15.4688 15.0117C15.6914 14.707 15.9766 14.5273 16.5117 14.5352C17.0625 14.5469 17.3555 14.7344 17.5742 15.0312C17.7969 15.3281 17.9219 15.7734 17.9219 16.2383V21.8398C17.9219 22.1484 18.1719 22.3984 18.4805 22.3984H21.8398C22.1484 22.3984 22.3984 22.1484 22.3984 21.8398V15.8281C22.3984 14.168 21.9102 12.8555 21.0664 11.9648C20.2266 11.0781 19.0547 10.6406 17.8164 10.6406C16.6367 10.6406 15.7422 11.0352 15.1211 11.4375V11.1992C15.1211 10.8906 14.8711 10.6406 14.5586 10.6406H11.1992ZM6.71875 11.7617H8.96094V21.2812H6.71875V11.7617ZM11.7617 11.7617H14V12.6328C14 12.875 14.1523 13.0898 14.3828 13.1641C14.6094 13.2422 14.8633 13.1641 15.0078 12.9727C15.0078 12.9727 15.8867 11.7617 17.8164 11.7617C18.7969 11.7617 19.6406 12.0859 20.2539 12.7344C20.8711 13.3867 21.2812 14.3867 21.2812 15.8281V21.2812H19.0391V16.2383C19.0391 15.5859 18.8828 14.9102 18.4727 14.3633C18.0664 13.8125 17.3789 13.4297 16.5312 13.4141C15.6758 13.4023 14.9805 13.793 14.5703 14.3477C14.1602 14.9023 14 15.5859 14 16.2383V21.2812H11.7617V11.7617Z" fill="#8B949E"/>
</svg>
