<svg width="28" height="28" viewBox="0 0 28 28" fill="none" xmlns="http://www.w3.org/2000/svg">
<path d="M2.80078 2.23828C2.49219 2.23828 2.23828 2.49219 2.23828 2.80078V25.1992C2.23828 25.5078 2.49219 25.7617 2.80078 25.7617H25.1992C25.5078 25.7617 25.7617 25.5078 25.7617 25.1992V2.80078C25.7617 2.49219 25.5078 2.23828 25.1992 2.23828H2.80078ZM3.35938 3.35938H24.6406V24.6406H3.35938V3.35938ZM6.16016 7.28125V7.55859L7.19922 8.96094C7.25 9.01953 7.28125 9.09766 7.28125 9.17578V17.6406C7.28125 17.7656 7.23828 17.8828 7.16016 17.9805L5.60156 19.9062V20.1602H10.0781V19.9062L8.51953 17.9688C8.44141 17.875 8.39844 17.7539 8.39844 17.6289V10.2891L13.0508 20.1602H13.9141L13.918 20.1484L17.9219 10.0117V18.3398C17.9219 18.4297 17.8828 18.5156 17.8203 18.5781L16.2383 19.9062V20.1602H22.3984V19.9062L21.3789 18.5781C21.3164 18.5156 21.2812 18.4297 21.2812 18.3398V9.03125C21.2812 8.94141 21.3164 8.85547 21.3789 8.78906L22.3984 7.55859V7.28125H17.793L14.5586 15.4805L10.6953 7.28125H6.16016ZM8.74609 8.39844H9.98438L13.9922 16.9102L13.4297 18.3359L8.74609 8.39844ZM19.0391 8.39844H20.3047C20.2109 8.59375 20.1602 8.8125 20.1602 9.03125V18.3398C20.1602 18.5859 20.2227 18.8281 20.3398 19.0391H18.8594C18.9766 18.8281 19.0391 18.5859 19.0391 18.3398V8.39844Z" fill="#8B949E"/>
</svg>
