<?xml version="1.0" encoding="UTF-8"?>
<svg xmlns="http://www.w3.org/2000/svg" viewBox="0 0 28 28" width="28px" height="28px">
<g id="surface23706860">
<path style=" stroke:none;fill-rule:nonzero;fill:rgb(43.137255%,46.27451%,50.588238%);fill-opacity:1;" d="M 2.800781 2.238281 C 2.492188 2.238281 2.238281 2.492188 2.238281 2.800781 L 2.238281 25.199219 C 2.238281 25.507812 2.492188 25.761719 2.800781 25.761719 L 25.199219 25.761719 C 25.507812 25.761719 25.761719 25.507812 25.761719 25.199219 L 25.761719 2.800781 C 25.761719 2.492188 25.507812 2.238281 25.199219 2.238281 Z M 3.359375 3.359375 L 24.640625 3.359375 L 24.640625 24.640625 L 3.359375 24.640625 Z M 6.160156 7.28125 L 6.160156 7.558594 L 7.199219 8.960938 C 7.25 9.019531 7.28125 9.097656 7.28125 9.175781 L 7.28125 17.640625 C 7.28125 17.765625 7.238281 17.882812 7.160156 17.980469 L 5.601562 19.90625 L 5.601562 20.160156 L 10.078125 20.160156 L 10.078125 19.90625 L 8.519531 17.96875 C 8.441406 17.875 8.398438 17.753906 8.398438 17.628906 L 8.398438 10.289062 L 13.050781 20.160156 L 13.914062 20.160156 L 13.917969 20.148438 L 17.921875 10.011719 L 17.921875 18.339844 C 17.921875 18.429688 17.882812 18.515625 17.820312 18.578125 L 16.238281 19.90625 L 16.238281 20.160156 L 22.398438 20.160156 L 22.398438 19.90625 L 21.378906 18.578125 C 21.316406 18.515625 21.28125 18.429688 21.28125 18.339844 L 21.28125 9.03125 C 21.28125 8.941406 21.316406 8.855469 21.378906 8.789062 L 22.398438 7.558594 L 22.398438 7.28125 L 17.792969 7.28125 L 14.558594 15.480469 L 10.695312 7.28125 Z M 8.746094 8.398438 L 9.984375 8.398438 L 13.992188 16.910156 L 13.429688 18.335938 Z M 19.039062 8.398438 L 20.304688 8.398438 C 20.210938 8.59375 20.160156 8.8125 20.160156 9.03125 L 20.160156 18.339844 C 20.160156 18.585938 20.222656 18.828125 20.339844 19.039062 L 18.859375 19.039062 C 18.976562 18.828125 19.039062 18.585938 19.039062 18.339844 Z M 19.039062 8.398438 "/>
</g>
</svg>
