<?xml version="1.0" encoding="UTF-8"?>
<svg xmlns="http://www.w3.org/2000/svg" viewBox="0 0 28 28" width="28px" height="28px">
<g id="surface24210802">
<path style=" stroke:none;fill-rule:nonzero;fill:rgb(58.431375%,61.56863%,64.705884%);fill-opacity:1;" d="M 19.164062 3.0625 C 15.8125 3.0625 13.089844 5.785156 13.089844 9.136719 C 13.089844 9.335938 13.140625 9.53125 13.160156 9.730469 C 9.019531 9.335938 5.355469 7.339844 2.871094 4.289062 C 2.753906 4.140625 2.574219 4.0625 2.386719 4.074219 C 2.199219 4.089844 2.035156 4.195312 1.941406 4.359375 C 1.417969 5.257812 1.121094 6.292969 1.121094 7.402344 C 1.121094 8.746094 1.601562 9.980469 2.34375 10.988281 C 2.199219 10.925781 2.042969 10.890625 1.90625 10.816406 C 1.734375 10.722656 1.527344 10.726562 1.359375 10.828125 C 1.191406 10.929688 1.085938 11.109375 1.085938 11.304688 L 1.085938 11.375 C 1.085938 13.4375 2.152344 15.230469 3.726562 16.328125 C 3.710938 16.324219 3.691406 16.332031 3.675781 16.328125 C 3.484375 16.292969 3.289062 16.363281 3.160156 16.507812 C 3.03125 16.65625 2.988281 16.859375 3.046875 17.046875 C 3.671875 18.988281 5.265625 20.476562 7.246094 21.015625 C 5.671875 21.953125 3.84375 22.503906 1.871094 22.503906 C 1.445312 22.503906 1.035156 22.484375 0.628906 22.433594 C 0.367188 22.398438 0.117188 22.554688 0.0273438 22.800781 C -0.0625 23.050781 0.0390625 23.328125 0.261719 23.46875 C 2.789062 25.089844 5.789062 26.039062 9.011719 26.039062 C 14.238281 26.039062 18.335938 23.855469 21.085938 20.738281 C 23.835938 17.617188 25.269531 13.566406 25.269531 9.78125 C 25.269531 9.621094 25.257812 9.46875 25.253906 9.308594 C 26.277344 8.523438 27.195312 7.605469 27.914062 6.527344 C 28.054688 6.320312 28.039062 6.042969 27.875 5.847656 C 27.714844 5.65625 27.441406 5.597656 27.210938 5.703125 C 26.921875 5.835938 26.585938 5.847656 26.285156 5.949219 C 26.683594 5.417969 27.023438 4.84375 27.230469 4.199219 C 27.300781 3.980469 27.222656 3.734375 27.042969 3.59375 C 26.859375 3.449219 26.605469 3.433594 26.40625 3.550781 C 25.453125 4.117188 24.394531 4.515625 23.273438 4.761719 C 22.191406 3.746094 20.761719 3.0625 19.164062 3.0625 Z M 19.164062 4.183594 C 20.589844 4.183594 21.882812 4.792969 22.785156 5.757812 C 22.921875 5.898438 23.121094 5.957031 23.308594 5.914062 C 24.039062 5.769531 24.734375 5.558594 25.410156 5.285156 C 25.019531 5.808594 24.539062 6.257812 23.976562 6.597656 C 23.71875 6.722656 23.597656 7.015625 23.691406 7.285156 C 23.785156 7.554688 24.066406 7.707031 24.34375 7.648438 C 24.902344 7.578125 25.402344 7.351562 25.933594 7.210938 C 25.457031 7.726562 24.929688 8.195312 24.359375 8.609375 C 24.203125 8.722656 24.121094 8.90625 24.132812 9.101562 C 24.140625 9.328125 24.148438 9.554688 24.148438 9.78125 C 24.148438 13.28125 22.808594 17.082031 20.246094 19.984375 C 17.6875 22.886719 13.929688 24.921875 9.011719 24.921875 C 6.777344 24.921875 4.671875 24.425781 2.765625 23.554688 C 5.128906 23.375 7.304688 22.539062 9.066406 21.15625 C 9.25 21.011719 9.320312 20.765625 9.246094 20.542969 C 9.171875 20.320312 8.964844 20.167969 8.734375 20.160156 C 6.886719 20.128906 5.339844 19.054688 4.515625 17.535156 C 4.546875 17.535156 4.570312 17.535156 4.601562 17.535156 C 5.15625 17.535156 5.703125 17.464844 6.210938 17.324219 C 6.457031 17.253906 6.625 17.023438 6.617188 16.769531 C 6.609375 16.511719 6.425781 16.292969 6.175781 16.238281 C 4.183594 15.835938 2.691406 14.214844 2.34375 12.199219 C 2.910156 12.390625 3.488281 12.546875 4.113281 12.566406 C 4.367188 12.582031 4.601562 12.421875 4.679688 12.179688 C 4.757812 11.933594 4.660156 11.667969 4.445312 11.53125 C 3.113281 10.640625 2.238281 9.125 2.238281 7.402344 C 2.238281 6.765625 2.40625 6.175781 2.625 5.617188 C 5.425781 8.691406 9.34375 10.730469 13.773438 10.953125 C 13.949219 10.964844 14.117188 10.890625 14.230469 10.757812 C 14.34375 10.621094 14.390625 10.441406 14.351562 10.273438 C 14.265625 9.910156 14.210938 9.523438 14.210938 9.136719 C 14.210938 6.390625 16.417969 4.183594 19.164062 4.183594 Z M 19.164062 4.183594 "/>
</g>
</svg>
