<?xml version="1.0" encoding="UTF-8"?>
<svg xmlns="http://www.w3.org/2000/svg" viewBox="0 0 32 32" width="32px" height="32px">
<g id="surface23699457">
<path style=" stroke:none;fill-rule:nonzero;fill:rgb(58.431375%,61.56863%,64.705884%);fill-opacity:1;" d="M 21.898438 3.5 C 18.074219 3.5 14.960938 6.613281 14.960938 10.441406 C 14.960938 10.671875 15.015625 10.894531 15.039062 11.121094 C 10.308594 10.667969 6.121094 8.386719 3.28125 4.898438 C 3.148438 4.734375 2.941406 4.640625 2.726562 4.65625 C 2.515625 4.671875 2.324219 4.796875 2.21875 4.980469 C 1.621094 6.007812 1.28125 7.191406 1.28125 8.460938 C 1.28125 9.996094 1.828125 11.40625 2.679688 12.558594 C 2.515625 12.488281 2.335938 12.449219 2.179688 12.359375 C 1.984375 12.253906 1.746094 12.261719 1.550781 12.375 C 1.359375 12.488281 1.242188 12.699219 1.238281 12.921875 L 1.238281 13 C 1.238281 15.359375 2.460938 17.40625 4.261719 18.660156 C 4.238281 18.65625 4.21875 18.664062 4.199219 18.660156 C 3.980469 18.621094 3.757812 18.699219 3.609375 18.867188 C 3.460938 19.035156 3.414062 19.265625 3.480469 19.480469 C 4.195312 21.703125 6.019531 23.398438 8.28125 24.019531 C 6.480469 25.089844 4.390625 25.71875 2.140625 25.71875 C 1.652344 25.71875 1.183594 25.695312 0.71875 25.640625 C 0.421875 25.601562 0.132812 25.773438 0.03125 26.058594 C -0.0703125 26.34375 0.0429688 26.664062 0.300781 26.820312 C 3.1875 28.671875 6.613281 29.761719 10.300781 29.761719 C 16.273438 29.761719 20.957031 27.265625 24.101562 23.699219 C 27.242188 20.136719 28.878906 15.503906 28.878906 11.179688 C 28.878906 10.996094 28.863281 10.820312 28.859375 10.640625 C 30.03125 9.742188 31.078125 8.691406 31.898438 7.460938 C 32.0625 7.222656 32.046875 6.90625 31.859375 6.683594 C 31.671875 6.464844 31.359375 6.398438 31.101562 6.519531 C 30.769531 6.667969 30.386719 6.683594 30.039062 6.800781 C 30.496094 6.191406 30.886719 5.539062 31.121094 4.800781 C 31.199219 4.546875 31.113281 4.269531 30.90625 4.105469 C 30.699219 3.941406 30.40625 3.921875 30.179688 4.058594 C 29.085938 4.707031 27.878906 5.164062 26.601562 5.441406 C 25.359375 4.28125 23.726562 3.5 21.898438 3.5 Z M 21.898438 4.78125 C 23.53125 4.78125 25.007812 5.476562 26.039062 6.578125 C 26.195312 6.738281 26.421875 6.808594 26.640625 6.761719 C 27.476562 6.59375 28.265625 6.351562 29.039062 6.039062 C 28.59375 6.640625 28.046875 7.152344 27.398438 7.539062 C 27.109375 7.683594 26.96875 8.019531 27.078125 8.328125 C 27.183594 8.632812 27.503906 8.808594 27.820312 8.738281 C 28.460938 8.664062 29.03125 8.402344 29.640625 8.238281 C 29.09375 8.832031 28.492188 9.367188 27.839844 9.839844 C 27.664062 9.96875 27.566406 10.179688 27.578125 10.398438 C 27.589844 10.660156 27.601562 10.917969 27.601562 11.179688 C 27.601562 15.179688 26.066406 19.523438 23.140625 22.839844 C 20.214844 26.15625 15.921875 28.480469 10.300781 28.480469 C 7.746094 28.480469 5.335938 27.914062 3.160156 26.921875 C 5.859375 26.710938 8.351562 25.757812 10.359375 24.179688 C 10.570312 24.011719 10.652344 23.734375 10.566406 23.476562 C 10.484375 23.222656 10.246094 23.046875 9.980469 23.039062 C 7.871094 23.003906 6.101562 21.773438 5.160156 20.039062 C 5.195312 20.039062 5.226562 20.039062 5.261719 20.039062 C 5.890625 20.039062 6.515625 19.960938 7.101562 19.800781 C 7.378906 19.71875 7.574219 19.457031 7.5625 19.164062 C 7.550781 18.871094 7.34375 18.621094 7.058594 18.558594 C 4.78125 18.101562 3.074219 16.246094 2.679688 13.941406 C 3.324219 14.164062 3.984375 14.335938 4.699219 14.359375 C 4.992188 14.378906 5.257812 14.195312 5.347656 13.917969 C 5.4375 13.640625 5.328125 13.335938 5.078125 13.179688 C 3.558594 12.164062 2.558594 10.429688 2.558594 8.460938 C 2.558594 7.730469 2.75 7.058594 3 6.421875 C 6.199219 9.933594 10.679688 12.265625 15.738281 12.519531 C 15.941406 12.53125 16.136719 12.449219 16.265625 12.296875 C 16.394531 12.140625 16.445312 11.933594 16.398438 11.738281 C 16.300781 11.324219 16.238281 10.886719 16.238281 10.441406 C 16.238281 7.304688 18.765625 4.78125 21.898438 4.78125 Z M 21.898438 4.78125 "/>
</g>
</svg>
